<svg xmlns="http://www.w3.org/2000/svg" width="105.538" height="117.716" viewBox="0 0 105.538 117.716">
  <g id="Grupo_49" data-name="Grupo 49" transform="translate(-2013.832 -3618.565)">
    <path id="Trazado_389" data-name="Trazado 389" d="M2119.37,3622.624v95.391a6.072,6.072,0,0,1-1.786,4.3,5.753,5.753,0,0,1-2.273,1.421,5.61,5.61,0,0,1-2.03.365h-75.094V3622.624a4.071,4.071,0,0,1,4.059-4.059h73.065A4.072,4.072,0,0,1,2119.37,3622.624Z" fill="#bcbec0"/>
    <path id="Trazado_390" data-name="Trazado 390" d="M2082.838,3730.192v-79.154a4.072,4.072,0,0,0-4.06-4.059h-60.887a4.071,4.071,0,0,0-4.059,4.059v79.154a6.089,6.089,0,0,0,6.088,6.089h69.006a6.089,6.089,0,0,1-6.088-6.089Z" fill="#e6e7e8"/>
    <path id="Trazado_391" data-name="Trazado 391" d="M2101.1,3630.742a6.089,6.089,0,0,0-6.089,6.089v93.361a6.074,6.074,0,0,1-1.786,4.3,5.75,5.75,0,0,1-2.273,1.42,5.632,5.632,0,0,1-2.03.366,6.089,6.089,0,0,1-6.088-6.089h0v-79.154a4.072,4.072,0,0,0-4.06-4.059h-50.739V3634.8a4.071,4.071,0,0,1,4.059-4.06Z" fill="#d1d3d4"/>
    <path id="Trazado_392" data-name="Trazado 392" d="M2113.281,3724.1h-18.266v-87.272a6.089,6.089,0,0,1,6.089-6.089,5.631,5.631,0,0,1,2.029.366,5.772,5.772,0,0,1,2.274,1.42,6.077,6.077,0,0,1,1.786,4.3v81.184A6.088,6.088,0,0,0,2113.281,3724.1Z" fill="#e6e7e8"/>
    <path id="Trazado_393" data-name="Trazado 393" d="M2115.311,3723.738a5.61,5.61,0,0,1-2.03.365,6.088,6.088,0,0,1-6.088-6.088v-81.184a6.077,6.077,0,0,0-1.786-4.3,5.772,5.772,0,0,0-2.274-1.42,6.124,6.124,0,0,1,6.333,1.42,6.078,6.078,0,0,1,1.786,4.3v81.184A6.024,6.024,0,0,0,2115.311,3723.738Z" fill="#a6a6a6"/>
    <path id="Trazado_394" data-name="Trazado 394" d="M2090.956,3735.915a5.632,5.632,0,0,1-2.03.366,6.089,6.089,0,0,1-6.088-6.089h0v-79.154a4.072,4.072,0,0,0-4.06-4.059h4.06a4.072,4.072,0,0,1,4.059,4.059v79.154A6.023,6.023,0,0,0,2090.956,3735.915Z" fill="#bcbec0"/>
    <path id="Trazado_395" data-name="Trazado 395" d="M2103.133,3631.108a6.024,6.024,0,0,0-4.059,5.723V3724.1h-4.059v-87.272a6.089,6.089,0,0,1,6.089-6.089A5.631,5.631,0,0,1,2103.133,3631.108Z" fill="#ccc"/>
    <path id="Trazado_396" data-name="Trazado 396" d="M2074.719,3646.979v16.237l-4.059-6.089-4.059,6.089v-16.237Z" fill="#ff5023"/>
    <g id="Grupo_48" data-name="Grupo 48">
      <path id="Trazado_397" data-name="Trazado 397" d="M2023.98,3665.245h32.473v4.059H2023.98Z" fill="#bcbec0"/>
      <path id="Trazado_398" data-name="Trazado 398" d="M2023.98,3657.127h4.059v4.059h-4.059Z" fill="#bcbec0"/>
      <path id="Trazado_399" data-name="Trazado 399" d="M2032.1,3657.127h24.355v4.059H2032.1Z" fill="#bcbec0"/>
      <path id="Trazado_400" data-name="Trazado 400" d="M2023.98,3673.364h20.3v4.059h-20.3Z" fill="#bcbec0"/>
      <path id="Trazado_401" data-name="Trazado 401" d="M2048.335,3673.364h8.118v4.059h-8.118Z" fill="#bcbec0"/>
      <path id="Trazado_402" data-name="Trazado 402" d="M2060.512,3673.364h12.178v4.059h-12.178Z" fill="#bcbec0"/>
      <path id="Trazado_403" data-name="Trazado 403" d="M2023.98,3681.482h48.71v4.059h-48.71Z" fill="#bcbec0"/>
      <path id="Trazado_404" data-name="Trazado 404" d="M2023.98,3689.6h12.177v4.059H2023.98Z" fill="#bcbec0"/>
      <path id="Trazado_405" data-name="Trazado 405" d="M2040.216,3689.6h4.059v4.059h-4.059Z" fill="#bcbec0"/>
      <path id="Trazado_406" data-name="Trazado 406" d="M2048.335,3689.6h24.355v4.059h-24.355Z" fill="#bcbec0"/>
      <path id="Trazado_407" data-name="Trazado 407" d="M2023.98,3697.719h48.71v4.059h-48.71Z" fill="#bcbec0"/>
      <path id="Trazado_408" data-name="Trazado 408" d="M2023.98,3705.837h48.71v4.059h-48.71Z" fill="#bcbec0"/>
      <path id="Trazado_409" data-name="Trazado 409" d="M2023.98,3713.955h36.532v4.06H2023.98Z" fill="#bcbec0"/>
      <path id="Trazado_410" data-name="Trazado 410" d="M2064.571,3713.955h8.119v4.06h-8.119Z" fill="#bcbec0"/>
      <path id="Trazado_411" data-name="Trazado 411" d="M2023.98,3722.074h48.71v4.059h-48.71Z" fill="#bcbec0"/>
    </g>
  </g>
</svg>
