<svg xmlns="http://www.w3.org/2000/svg" width="147.273" height="140.987" viewBox="0 0 147.273 140.987">
  <g id="Grupo_39" data-name="Grupo 39" transform="translate(-1985.213 -3162.546)">
    <path id="Trazado_223" data-name="Trazado 223" d="M1987.009,3259.955v5.14a17,17,0,0,0,16.811,17.185h80.772v-22.324Z" fill="#ccd3df"/>
    <path id="Trazado_224" data-name="Trazado 224" d="M2105.267,3174.819v13.47h-20.953v-13.47a10.474,10.474,0,0,1,9.878-10.459c.2-.012.4-.018.6-.018A10.477,10.477,0,0,1,2105.267,3174.819Z" fill="#ccd3df"/>
    <path id="Trazado_225" data-name="Trazado 225" d="M2016.47,3164.342A11.973,11.973,0,0,0,2004.5,3176.2l-.623,83.759,80.44.291v-85.427a10.474,10.474,0,0,1,9.878-10.459v-.018Z" fill="#d4e1f4"/>
    <rect id="Rectángulo_16" data-name="Rectángulo 16" width="86.508" height="57.355" rx="5.987" transform="translate(2044.182 3244.381)" fill="#3090fc"/>
    <path id="Trazado_226" data-name="Trazado 226" d="M2084.515,3263.886a40.448,40.448,0,0,1,4.112,9.731l-5.136,1.6a40.642,40.642,0,0,0-15.455-20.765l3.009-4.457a40.539,40.539,0,0,1,13.47,13.889Z" fill="#ffdb00"/>
    <path id="Trazado_227" data-name="Trazado 227" d="M2083.491,3275.219l-16.712,5.217-8.537-11.468,9.794-14.514A40.642,40.642,0,0,1,2083.491,3275.219Z" fill="#fb6771"/>
    <path id="Trazado_228" data-name="Trazado 228" d="M2066.426,3280.822l5.756,7.735-3.682,6.07-7.465-10.027-.015-.03a7.147,7.147,0,0,0,1.146-.7l4.2-3.128Z" fill="#6d7486"/>
    <path id="Trazado_229" data-name="Trazado 229" d="M2079.142,3256.759l.044-.033,1.249-.928a4.461,4.461,0,1,1,5.328,7.157l-1.248.931-.045.033" fill="#fb6771"/>
    <path id="Trazado_230" data-name="Trazado 230" d="M1995.989,3265.095v-5.14h-8.98v5.14a17,17,0,0,0,16.811,17.185h8.98A17,17,0,0,1,1995.989,3265.095Z" fill="#b8c0cc"/>
    <path id="Trazado_231" data-name="Trazado 231" d="M2016.47,3164.342A11.973,11.973,0,0,0,2004.5,3176.2l-.623,83.759h8.98l.623-83.759a11.973,11.973,0,0,1,11.973-11.854Z" fill="#bacadd"/>
    <path id="Trazado_232" data-name="Trazado 232" d="M2053.162,3295.75v-45.382a5.987,5.987,0,0,1,5.987-5.987h-8.98a5.987,5.987,0,0,0-5.987,5.987v45.382a5.986,5.986,0,0,0,5.983,5.987h8.984a5.986,5.986,0,0,1-5.987-5.984Z" fill="#49bdff"/>
    <path id="Trazado_233" data-name="Trazado 233" d="M2058.242,3268.968l8.537,11.468-.413.308-4.2,3.128a7.149,7.149,0,0,1-8.537-11.47Z" fill="#ffdb00"/>
    <g id="Grupo_38" data-name="Grupo 38">
      <path id="Trazado_234" data-name="Trazado 234" d="M2013.333,3185.011h2.239a1.8,1.8,0,1,0,0-3.592h-2.239a1.8,1.8,0,1,0,0,3.592Z" fill="#284268"/>
      <path id="Trazado_235" data-name="Trazado 235" d="M2022.277,3185.011H2052.2a1.8,1.8,0,0,0,0-3.592h-29.921a1.8,1.8,0,1,0,0,3.592Z" fill="#284268"/>
      <path id="Trazado_236" data-name="Trazado 236" d="M2058.709,3185.011h14.245a1.8,1.8,0,0,0,0-3.592h-14.245a1.8,1.8,0,0,0,0,3.592Z" fill="#284268"/>
      <path id="Trazado_237" data-name="Trazado 237" d="M2072.954,3199.379h-47.92a1.8,1.8,0,1,0,0,3.592h47.92a1.8,1.8,0,0,0,0-3.592Z" fill="#284268"/>
      <path id="Trazado_238" data-name="Trazado 238" d="M2013.333,3202.971h5.19a1.8,1.8,0,1,0,0-3.592h-5.19a1.8,1.8,0,1,0,0,3.592Z" fill="#284268"/>
      <path id="Trazado_239" data-name="Trazado 239" d="M2072.954,3190.324h-2.239a1.8,1.8,0,1,0,0,3.592h2.239a1.8,1.8,0,0,0,0-3.592Z" fill="#284268"/>
      <path id="Trazado_240" data-name="Trazado 240" d="M2064.013,3193.916a1.8,1.8,0,1,0,0-3.592h-29.924a1.8,1.8,0,1,0,0,3.592Z" fill="#284268"/>
      <path id="Trazado_241" data-name="Trazado 241" d="M2013.333,3193.916h14.245a1.8,1.8,0,1,0,0-3.592h-14.245a1.8,1.8,0,1,0,0,3.592Z" fill="#284268"/>
      <path id="Trazado_242" data-name="Trazado 242" d="M2013.333,3211.876h47.923a1.8,1.8,0,0,0,0-3.592h-47.923a1.8,1.8,0,1,0,0,3.592Z" fill="#284268"/>
      <path id="Trazado_243" data-name="Trazado 243" d="M2072.954,3208.284h-5.19a1.8,1.8,0,0,0,0,3.592h5.19a1.8,1.8,0,0,0,0-3.592Z" fill="#284268"/>
      <path id="Trazado_244" data-name="Trazado 244" d="M2013.333,3220.931h2.239a1.8,1.8,0,1,0,0-3.592h-2.239a1.8,1.8,0,1,0,0,3.592Z" fill="#284268"/>
      <path id="Trazado_245" data-name="Trazado 245" d="M2053.994,3219.135a1.8,1.8,0,0,0-1.8-1.8h-29.921a1.8,1.8,0,1,0,0,3.592H2052.2A1.8,1.8,0,0,0,2053.994,3219.135Z" fill="#284268"/>
      <path id="Trazado_246" data-name="Trazado 246" d="M2072.954,3217.339h-14.245a1.8,1.8,0,0,0,0,3.592h14.245a1.8,1.8,0,0,0,0-3.592Z" fill="#284268"/>
      <path id="Trazado_247" data-name="Trazado 247" d="M2074.75,3237.095a1.8,1.8,0,0,0-1.8-1.8h-47.92a1.8,1.8,0,1,0,0,3.592h47.92A1.8,1.8,0,0,0,2074.75,3237.095Z" fill="#284268"/>
      <path id="Trazado_248" data-name="Trazado 248" d="M2013.333,3238.891h5.19a1.8,1.8,0,1,0,0-3.592h-5.19a1.8,1.8,0,1,0,0,3.592Z" fill="#284268"/>
      <path id="Trazado_249" data-name="Trazado 249" d="M2072.954,3226.244h-2.239a1.8,1.8,0,1,0,0,3.592h2.239a1.8,1.8,0,0,0,0-3.592Z" fill="#284268"/>
      <path id="Trazado_250" data-name="Trazado 250" d="M2034.089,3229.836h29.924a1.8,1.8,0,1,0,0-3.592h-29.924a1.8,1.8,0,1,0,0,3.592Z" fill="#284268"/>
      <path id="Trazado_251" data-name="Trazado 251" d="M2013.333,3229.836h14.245a1.8,1.8,0,1,0,0-3.592h-14.245a1.8,1.8,0,1,0,0,3.592Z" fill="#284268"/>
      <path id="Trazado_252" data-name="Trazado 252" d="M2032.293,3244.279h-18.96a1.8,1.8,0,1,0,0,3.592h18.96a1.8,1.8,0,1,0,0-3.592Z" fill="#284268"/>
      <path id="Trazado_253" data-name="Trazado 253" d="M2124.7,3242.585H2086.11v-52.5h19.157a1.8,1.8,0,0,0,1.8-1.8v-13.47a12.271,12.271,0,0,0-12.269-12.273h0c-.2,0-.4.006-.6.016v-.016H2016.47a13.815,13.815,0,0,0-13.769,13.637l-.61,81.977h-15.082a1.8,1.8,0,0,0-1.8,1.8v5.139a18.837,18.837,0,0,0,17.82,18.961v.02h39.353v11.674a7.793,7.793,0,0,0,7.783,7.783H2124.7a7.793,7.793,0,0,0,7.783-7.783v-45.382a7.793,7.793,0,0,0-7.783-7.783Zm-30.4-76.432c.162-.01.326-.015.49-.015a8.681,8.681,0,0,1,8.68,8.681h0v11.674H2086.11v-11.674A8.681,8.681,0,0,1,2094.3,3166.153Zm-51.915,114.331h-38.557v.036l-.009-.036a15.222,15.222,0,0,1-15.015-15.389v-3.344h53.581Zm86.508,15.266a4.2,4.2,0,0,1-4.191,4.191h-74.534a4.2,4.2,0,0,1-4.191-4.191v-45.382a4.2,4.2,0,0,1,4.191-4.191h6.689a1.8,1.8,0,1,0,0-3.592h-6.689a7.793,7.793,0,0,0-7.783,7.783v7.791h-36.7l.61-81.945a10.21,10.21,0,0,1,10.177-10.076h69.649a12.247,12.247,0,0,0-3.6,8.681v67.766h-15.91a1.8,1.8,0,0,0,0,3.592H2124.7a4.2,4.2,0,0,1,4.191,4.191Z" fill="#284268"/>
      <path id="Trazado_254" data-name="Trazado 254" d="M2086.85,3264.384a6.257,6.257,0,0,0-7.471-10.039,42.2,42.2,0,0,0-7.381-5.87,1.794,1.794,0,0,0-2.442.517l-12.632,18.718-4.367,3.251a8.989,8.989,0,0,0-3.6,7.182,8.86,8.86,0,0,0,1.768,5.335,8.951,8.951,0,0,0,9.661,3.254l6.677,8.968a1.8,1.8,0,0,0,1.44.723c.03,0,.057,0,.085,0a1.794,1.794,0,0,0,1.451-.862l3.682-6.071a1.8,1.8,0,0,0-.095-2l-4.411-5.927,19.95-6.226a1.8,1.8,0,0,0,1.2-2.193,42.405,42.405,0,0,0-3.51-8.755Zm-3.365-7.646a2.662,2.662,0,0,1,1.508,4.51c-.475-.728-.975-1.452-1.5-2.164s-1.073-1.391-1.639-2.06A2.651,2.651,0,0,1,2083.485,3256.738Zm-23.25,26.217a5.354,5.354,0,0,1-5.533-9.112l3.173-2.362,6.393,8.587-3.173,2.365a5.389,5.389,0,0,1-.86.522Zm9.785,5.7-1.672,2.756-4.745-6.373,2.4-1.785Zm-2.56-10.317-7.017-9.425,8.038-11.91a39.14,39.14,0,0,1,12.692,17.055Zm17.152-5.353a42.757,42.757,0,0,0-14.118-18.966l1.045-1.55a38.77,38.77,0,0,1,11.423,12.317l0,.006a38.66,38.66,0,0,1,3.43,7.636Z" fill="#284268"/>
      <path id="Trazado_255" data-name="Trazado 255" d="M2120.33,3282.013h-2.664a1.8,1.8,0,0,0,0,3.592h2.664a1.8,1.8,0,0,0,0-3.592Z" fill="#284268"/>
      <path id="Trazado_256" data-name="Trazado 256" d="M2112.224,3282.013H2096.1a1.8,1.8,0,1,0,0,3.592h16.122a1.8,1.8,0,0,0,0-3.592Z" fill="#284268"/>
      <path id="Trazado_257" data-name="Trazado 257" d="M2103.214,3276.078a1.8,1.8,0,0,0,1.8,1.8h15.021a1.8,1.8,0,0,0,0-3.592H2105.01A1.8,1.8,0,0,0,2103.214,3276.078Z" fill="#284268"/>
      <path id="Trazado_258" data-name="Trazado 258" d="M2096.1,3277.874h3.466a1.8,1.8,0,0,0,0-3.592H2096.1a1.8,1.8,0,1,0,0,3.592Z" fill="#284268"/>
      <path id="Trazado_259" data-name="Trazado 259" d="M2120.33,3266.448h-2.664a1.8,1.8,0,0,0,0,3.592h2.664a1.8,1.8,0,0,0,0-3.592Z" fill="#284268"/>
      <path id="Trazado_260" data-name="Trazado 260" d="M2096.1,3270.04h16.122a1.8,1.8,0,0,0,0-3.592H2096.1a1.8,1.8,0,1,0,0,3.592Z" fill="#284268"/>
      <path id="Trazado_261" data-name="Trazado 261" d="M2105.01,3262.308h15.021a1.8,1.8,0,0,0,0-3.592H2105.01a1.8,1.8,0,0,0,0,3.592Z" fill="#284268"/>
      <path id="Trazado_262" data-name="Trazado 262" d="M2096.1,3262.308h3.466a1.8,1.8,0,0,0,0-3.592H2096.1a1.8,1.8,0,1,0,0,3.592Z" fill="#284268"/>
    </g>
  </g>
</svg>
